<svg xmlns="http://www.w3.org/2000/svg" version="1.1" xmlns:xlink="http://www.w3.org/1999/xlink"
    xmlns:svgjs="http://svgjs.dev/svgjs" viewBox="124.98 235 750.03 130">
    <g>
        <rect width="333.3333333333333" height="333.3333333333333" rx="13.333333333333334" ry="13.333333333333334"
            y="342.7754089421033" fill="#000000"
            transform="matrix(0.38995089436735475,0,0,0.38995089436735475,0,101.34260897139133)" x="320.5531921386718">
        </rect>
        <path
            d="M407.1139984130859 580.8325845427034L455.13410487835324 434.4420792004421L466.64796484909294 438.05158292142795L418.7877731056414 584.4420882636894L407.1139984130859 580.8325845427034ZM507.7688933160203 580.8325845427034L555.811844741547 434.4420792004421L567.3257047122868 438.05158292142795L519.4655129688351 584.4420882636894L507.7688933160203 580.8325845427034Z "
            fill="#ffffff" transform="matrix(0.38995089436735475,0,0,0.38995089436735475,0,101.34260897139133)"></path>
        <path
            d="M789.7388138276323 520.9816704366483L754.872056283959 520.9816704366483L754.872056283959 581.4951893869231L737.2198484898817 581.4951893869231L737.2198484898817 434.4420864412214L789.7388138276323 434.4420864412214Q801.0887457811795 434.4420864412214 809.4917802352196 437.7099331733481Q817.8948146892596 440.9486027025094 823.4676604556543 446.4047396570424Q829.0113290190835 451.8900538145408 831.8706949096944 459.12600014996417Q834.7008835973398 466.3619464853876 834.7008835973398 474.35650009791186L834.7008835973398 474.35650009791186L834.7008835973398 480.6587759384419Q834.7008835973398 488.6533295509662 831.8706949096944 496.00598469825127Q829.0113290190835 503.35863984553635 823.3509516437927 508.9023084089656Q817.6905742685018 514.4751541753602 809.2875398144616 517.7430009074869Q800.8845053604215 520.9816704366483 789.7388138276323 520.9816704366483L789.7388138276323 520.9816704366483ZM754.872056283959 450.83967450778573L754.872056283959 504.6132595730493L787.6380552141222 504.6132595730493Q817.0486758032625 504.6132595730493 817.0486758032625 479.404156210929L817.0486758032625 479.404156210929L817.0486758032625 475.6111198254248Q817.0486758032625 464.4946054956009 809.8127294678392 457.6671400016934Q802.5476059294502 450.83967450778573 787.6380552141222 450.83967450778573L787.6380552141222 450.83967450778573L754.872056283959 450.83967450778573ZM962.2052605562122 534.4323610037054L878.1749160158112 534.4323610037054Q878.8168144810503 549.9838101842727 887.8325701973641 559.4372239450679Q896.8775031166434 568.8906377058629 913.0416735594844 568.8906377058629L913.0416735594844 568.8906377058629Q920.3943287067697 568.8906377058629 925.879642864268 567.1983599338687Q931.3357798188009 565.5352593648399 935.2163478132014 562.5883618653329Q939.0969158076019 559.6414643658258 941.5186236537314 555.7608963714254Q943.9403314998611 551.8803283770249 945.3991916481319 547.4745707292468L945.3991916481319 547.4745707292468L960.9506408286992 551.6760879562669Q956.5448831809211 566.1479806271137 944.6697615739964 575.3096223582547Q932.7946399670719 584.4420868864302 912.6331927179687 584.4420868864302L912.6331927179687 584.4420868864302Q901.4875011851794 584.4420868864302 892.1507962362458 580.5615188920297Q882.8140912873124 576.6517736946639 876.0741574023012 569.532536171102Q869.3634007202553 562.3841214445749 865.5703643347509 552.4930496392985Q861.8065051522123 542.6311550369876 861.8065051522123 530.6685018211667L861.8065051522123 530.6685018211667L861.8065051522123 525.6208457081495Q861.8065051522123 514.6793945961181 865.6870731466128 505.225980835323Q869.567641141013 495.77256707452796 876.5118154467824 488.94510158062036Q883.4268125495863 482.11763608671276 892.7926947014852 478.2370680923123Q902.1293996504186 474.35650009791186 913.0416735594844 474.35650009791186L913.0416735594844 474.35650009791186Q925.879642864268 474.35650009791186 935.2163478132014 479.0832069783094Q944.5530527621348 483.809913858707 950.5635565730107 490.75408816447623Q956.5448831809211 497.66908526728 959.3750718685668 505.8678793005622Q962.2052605562122 514.0666733338444 962.2052605562122 520.9816704366483L962.2052605562122 520.9816704366483L962.2052605562122 534.4323610037054ZM913.0416735594844 489.9079492784791L913.0416735594844 489.9079492784791Q906.1266764566807 489.9079492784791 900.1453498487703 492.0962395008854Q894.1348460378944 494.3137069262571 889.64155678122 498.3109837325192Q885.1190903215805 502.3082605387813 882.2889016339349 507.6476886814527Q879.4295357433242 513.0162940270893 878.6125740602923 519.3185698676195L878.6125740602923 519.3185698676195L945.8368496926131 519.3185698676195Q945.3991916481319 512.5786359826081 942.5690029604865 507.12249902807514Q939.7388142728411 501.6663620735422 935.2163478132014 497.87332568803794Q930.6938813535618 494.10946650549914 924.9167951664093 492.00870789198916Q919.1397089792566 489.9079492784791 913.0416735594844 489.9079492784791ZM991.2074003038366 492.417188733505L991.2074003038366 477.30339759741895L1023.9733992339999 477.30339759741895L1023.9733992339999 434.4420864412214L1040.3709873005641 434.4420864412214L1040.3709873005641 477.30339759741895L1080.6938817987707 477.30339759741895L1080.6938817987707 492.417188733505L1040.3709873005641 492.417188733505L1040.3709873005641 560.079122410307Q1040.3709873005641 566.381398250837 1046.031364675855 566.381398250837L1046.031364675855 566.381398250837L1075.6462256857535 566.381398250837L1075.6462256857535 581.4951893869231L1040.137569676841 581.4951893869231Q1033.018332153279 581.4951893869231 1028.4958656936396 576.8851913183871Q1023.9733992339999 572.2460160468859 1023.9733992339999 565.0976013203588L1023.9733992339999 565.0976013203588L1023.9733992339999 492.417188733505L991.2074003038366 492.417188733505ZM1219.343950290432 534.4323610037054L1135.313605750031 534.4323610037054Q1135.9555042152706 549.9838101842727 1144.9712599315844 559.4372239450679Q1154.0161928508637 568.8906377058629 1170.1803632937044 568.8906377058629L1170.1803632937044 568.8906377058629Q1177.5330184409895 568.8906377058629 1182.9891553955226 567.1983599338687Q1188.4744695530212 565.5352593648399 1192.3550375474215 562.5883618653329Q1196.2356055418218 559.6414643658258 1198.6573133879515 555.7608963714254Q1201.0790212340812 551.8803283770249 1202.5378813823518 547.4745707292468L1202.5378813823518 547.4745707292468L1218.0893305629193 551.6760879562669Q1213.6835729151412 566.1479806271137 1201.8084513082167 575.3096223582547Q1189.9333297012918 584.4420868864302 1169.7718824521885 584.4420868864302L1169.7718824521885 584.4420868864302Q1158.6261909193995 584.4420868864302 1149.289485970466 580.5615188920297Q1139.9236038185672 576.6517736946639 1133.2128471365213 569.532536171102Q1126.5020904544754 562.3841214445749 1122.709054068971 552.4930496392985Q1118.9160176834666 542.6311550369876 1118.9160176834666 530.6685018211667L1118.9160176834666 530.6685018211667L1118.9160176834666 525.6208457081495Q1118.9160176834666 514.6793945961181 1122.8257628808328 505.225980835323Q1126.706330875233 495.77256707452796 1133.6213279780368 488.94510158062036Q1140.5655022838064 482.11763608671276 1149.9022072327398 478.2370680923123Q1159.2680893846386 474.35650009791186 1170.1803632937044 474.35650009791186L1170.1803632937044 474.35650009791186Q1182.9891553955226 474.35650009791186 1192.3550375474215 479.0832069783094Q1201.691742496355 483.809913858707 1207.6730691042653 490.75408816447623Q1213.6835729151412 497.66908526728 1216.5137616027869 505.8678793005622Q1219.343950290432 514.0666733338444 1219.343950290432 520.9816704366483L1219.343950290432 520.9816704366483L1219.343950290432 534.4323610037054ZM1170.1803632937044 489.9079492784791L1170.1803632937044 489.9079492784791Q1163.2653661909007 489.9079492784791 1157.2548623800249 492.0962395008854Q1151.2735357721144 494.3137069262571 1146.7510693124746 498.3109837325192Q1142.2577800558006 502.3082605387813 1139.3984141651895 507.6476886814527Q1136.5682254775443 513.0162940270893 1135.722086591547 519.3185698676195L1135.722086591547 519.3185698676195L1202.9463622238677 519.3185698676195Q1202.5378813823518 512.5786359826081 1199.7076926947066 507.12249902807514Q1196.877504007061 501.6663620735422 1192.3550375474215 497.87332568803794Q1187.8325710877816 494.10946650549914 1182.0554849006294 492.00870789198916Q1176.2783987134767 489.9079492784791 1170.1803632937044 489.9079492784791ZM1246.011913800823 492.417188733505L1246.011913800823 477.30339759741895L1283.8255688440036 477.30339759741895L1283.8255688440036 491.16256900599205L1286.363985501995 491.16256900599205Q1290.3612623082572 482.55529413119405 1297.7139174555423 478.4413085130702Q1305.0665726028274 474.35650009791186 1314.5199863636226 474.35650009791186L1314.5199863636226 474.35650009791186Q1330.2756759649474 474.35650009791186 1339.9333301465008 484.6560527447041Q1349.5909843280538 494.95560539149625 1350.232882793293 514.6793945961181L1350.232882793293 514.6793945961181L1332.9891558407312 517.2178112541094Q1332.9891558407312 502.71674138029715 1326.0741587379275 496.29775672790544Q1319.1299844321584 489.9079492784791 1309.034672206124 489.9079492784791L1309.034672206124 489.9079492784791Q1302.5281559448358 489.9079492784791 1297.8014490644387 492.417188733505Q1293.074742184041 494.95560539149625 1289.9236042637758 499.36136303927424Q1286.7724663435106 503.7671206870522 1285.31360619524 509.6609156860664Q1283.8255688440036 515.5255334821152 1283.8255688440036 522.2654673671266L1283.8255688440036 522.2654673671266L1283.8255688440036 566.381398250837L1310.3184691366023 566.381398250837L1310.3184691366023 581.4951893869231L1243.5026743457975 581.4951893869231L1243.5026743457975 566.381398250837L1267.4571579804046 566.381398250837L1267.4571579804046 492.417188733505L1246.011913800823 492.417188733505ZM1506.09750103455 581.4951893869231L1506.09750103455 434.4420864412214L1523.7497088286277 434.4420864412214L1523.7497088286277 499.56560346003215L1586.3348091894472 499.56560346003215L1586.3348091894472 434.4420864412214L1603.9870169835244 434.4420864412214L1603.9870169835244 581.4951893869231L1586.3348091894472 581.4951893869231L1586.3348091894472 515.9631915265966L1523.7497088286277 515.9631915265966L1523.7497088286277 581.4951893869231L1506.09750103455 581.4951893869231ZM1713.2264648860455 565.0976013203588L1713.2264648860455 563.8429815928457L1710.7172254310199 563.8429815928457Q1705.6695693180027 574.3467746603958 1696.7413452105852 579.394430773413Q1687.8131211031673 584.4420868864302 1677.9512265008566 584.4420868864302L1677.9512265008566 584.4420868864302Q1667.6516738540645 584.4420868864302 1658.810981355543 580.9699997335456Q1649.9994660599868 577.497912580661 1643.3762409868373 570.6704470867533Q1636.7530159136877 563.8429815928457 1632.9891567311488 553.9810869905348Q1629.1961203456449 544.0900151852585 1629.1961203456449 531.0769826626824L1629.1961203456449 531.0769826626824L1629.1961203456449 527.7216043216595Q1629.1961203456449 514.9128122198415 1632.9891567311488 505.02174041456516Q1636.7530159136877 495.15984581225416 1643.3762409868373 488.3323803183466Q1649.9994660599868 481.504914824439 1658.810981355543 477.91611885969274Q1667.6516738540645 474.35650009791186 1677.5135684563752 474.35650009791186L1677.5135684563752 474.35650009791186Q1688.2216019446832 474.35650009791186 1696.945585631343 479.0832069783094Q1705.6695693180027 483.809913858707 1710.7172254310199 493.6718084610179L1710.7172254310199 493.6718084610179L1713.2264648860455 493.6718084610179L1713.2264648860455 477.30339759741895L1729.6240529526099 477.30339759741895L1729.6240529526099 560.079122410307Q1729.6240529526099 566.381398250837 1735.2844303279007 566.381398250837L1735.2844303279007 566.381398250837L1740.5363268616761 566.381398250837L1740.5363268616761 581.4951893869231L1729.4198125318521 581.4951893869231Q1722.2713978053248 581.4951893869231 1717.7489313456854 576.8851913183871Q1713.2264648860455 572.2460160468859 1713.2264648860455 565.0976013203588L1713.2264648860455 565.0976013203588ZM1679.6143270698853 568.8906377058629L1679.6143270698853 568.8906377058629Q1686.9669822171704 568.8906377058629 1693.181726448804 566.1479806271137Q1699.3672934774727 563.43450075133 1703.7730511252507 558.3868446383128Q1708.1788087730283 553.3391885252956 1710.7172254310199 546.3074826106301Q1713.2264648860455 539.2757766959646 1713.2264648860455 530.6685018211667L1713.2264648860455 530.6685018211667L1713.2264648860455 528.1300851631754Q1713.2264648860455 519.7270507091353 1710.7172254310199 512.6953447944697Q1708.1788087730283 505.6636388798043 1703.6855195163544 500.61598276678717Q1699.1630530567145 495.56832665377004 1692.9483088250809 492.73813796612455Q1686.7627417964127 489.9079492784791 1679.6143270698853 489.9079492784791L1679.6143270698853 489.9079492784791Q1672.2616719226003 489.9079492784791 1666.163636502828 492.6214291542629Q1660.0947782860212 495.3640862330121 1655.5723118263818 500.2950335341676Q1651.049845366742 505.225980835323 1648.5406059117163 512.286863952954Q1646.0021892537247 519.3185698676195 1646.0021892537247 527.7216043216595L1646.0021892537247 527.7216043216595L1646.0021892537247 531.0769826626824Q1646.0021892537247 548.9334308775177 1655.3680714056236 558.9120342916904Q1664.704776354557 568.8906377058629 1679.6143270698853 568.8906377058629ZM1760.289293269263 492.417188733505L1760.289293269263 477.30339759741895L1798.102948312444 477.30339759741895L1798.102948312444 491.16256900599205L1800.6121877674695 491.16256900599205Q1804.6094645737317 482.55529413119405 1811.9621197210167 478.4413085130702Q1819.3147748683018 474.35650009791186 1828.768188629097 474.35650009791186L1828.768188629097 474.35650009791186Q1844.5238782304223 474.35650009791186 1854.1815324119752 484.6560527447041Q1863.8683637964937 494.95560539149625 1864.4810850587673 514.6793945961181L1864.4810850587673 514.6793945961181L1847.266535309171 517.2178112541094Q1847.266535309171 502.71674138029715 1840.322361003402 496.29775672790544Q1833.4073639005983 489.9079492784791 1823.312051674564 489.9079492784791L1823.312051674564 489.9079492784791Q1816.8055354132757 489.9079492784791 1812.0788285328786 492.417188733505Q1807.3521216524805 494.95560539149625 1804.2009837322157 499.36136303927424Q1801.049845811951 503.7671206870522 1799.5618084607145 509.6609156860664Q1798.102948312444 515.5255334821152 1798.102948312444 522.2654673671266L1798.102948312444 522.2654673671266L1798.102948312444 566.381398250837L1824.5666714020772 566.381398250837L1824.5666714020772 581.4951893869231L1757.7800538142374 581.4951893869231L1757.7800538142374 566.381398250837L1781.7053602458795 566.381398250837L1781.7053602458795 492.417188733505L1760.289293269263 492.417188733505ZM1888.8440495348905 492.417188733505L1888.8440495348905 477.30339759741895L1926.657704578071 477.30339759741895L1926.657704578071 491.16256900599205L1929.196121236062 491.16256900599205Q1933.1933980423241 482.55529413119405 1940.5460531896097 478.4413085130702Q1947.8987083368943 474.35650009791186 1957.3521220976895 474.35650009791186L1957.3521220976895 474.35650009791186Q1973.1078116990147 474.35650009791186 1982.7654658805677 484.6560527447041Q1992.4231200621207 494.95560539149625 1993.0650185273598 514.6793945961181L1993.0650185273598 514.6793945961181L1975.8212915747986 517.2178112541094Q1975.8212915747986 502.71674138029715 1968.906294471995 496.29775672790544Q1961.9621201662253 489.9079492784791 1951.8668079401914 489.9079492784791L1951.8668079401914 489.9079492784791Q1945.3602916789032 489.9079492784791 1940.6335847985056 492.417188733505Q1935.906877918108 494.95560539149625 1932.7557399978432 499.36136303927424Q1929.604602077578 503.7671206870522 1928.1457419293074 509.6609156860664Q1926.657704578071 515.5255334821152 1926.657704578071 522.2654673671266L1926.657704578071 522.2654673671266L1926.657704578071 566.381398250837L1953.1506048706697 566.381398250837L1953.1506048706697 581.4951893869231L1886.3348100798644 581.4951893869231L1886.3348100798644 566.381398250837L1910.289293714472 566.381398250837L1910.289293714472 492.417188733505L1888.8440495348905 492.417188733505ZM2098.919910885893 565.0976013203588L2098.919910885893 563.8429815928457L2096.4106714308673 563.8429815928457Q2091.36301531785 574.3467746603958 2082.434791210433 579.394430773413Q2073.506567103015 584.4420868864302 2063.6446725007036 584.4420868864302L2063.6446725007036 584.4420868864302Q2053.3451198539115 584.4420868864302 2044.5336045583558 580.9699997335456Q2035.6929120598343 577.497912580661 2029.0696869866847 570.6704470867533Q2022.4756391165001 563.8429815928457 2018.6826027309962 553.9810869905348Q2014.8895663454919 544.0900151852585 2014.8895663454919 531.0769826626824L2014.8895663454919 531.0769826626824L2014.8895663454919 527.7216043216595Q2014.8895663454919 514.9128122198415 2018.6826027309962 505.02174041456516Q2022.4756391165001 495.15984581225416 2029.0696869866847 488.3323803183466Q2035.6929120598343 481.504914824439 2044.5336045583558 477.91611885969274Q2053.3451198539115 474.35650009791186 2063.207014456223 474.35650009791186L2063.207014456223 474.35650009791186Q2073.9442251474966 474.35650009791186 2082.639031631191 479.0832069783094Q2091.36301531785 483.809913858707 2096.4106714308673 493.6718084610179L2096.4106714308673 493.6718084610179L2098.919910885893 493.6718084610179L2098.919910885893 477.30339759741895L2115.3174989524578 477.30339759741895L2115.3174989524578 560.079122410307Q2115.3174989524578 566.381398250837 2120.977876327748 566.381398250837L2120.977876327748 566.381398250837L2126.229772861524 566.381398250837L2126.229772861524 581.4951893869231L2115.1132585317 581.4951893869231Q2107.9648438051727 581.4951893869231 2103.442377345533 576.8851913183871Q2098.919910885893 572.2460160468859 2098.919910885893 565.0976013203588L2098.919910885893 565.0976013203588ZM2065.3077730697323 568.8906377058629L2065.3077730697323 568.8906377058629Q2072.6604282170183 568.8906377058629 2078.875172448652 566.1479806271137Q2085.0607394773197 563.43450075133 2089.4664971250977 558.3868446383128Q2093.9014319758417 553.3391885252956 2096.4106714308673 546.3074826106301Q2098.919910885893 539.2757766959646 2098.919910885893 530.6685018211667L2098.919910885893 530.6685018211667L2098.919910885893 528.1300851631754Q2098.919910885893 519.7270507091353 2096.4106714308673 512.6953447944697Q2093.9014319758417 505.6636388798043 2089.378965516202 500.61598276678717Q2084.856499056562 495.56832665377004 2078.6709320278933 492.73813796612455Q2072.4561877962597 489.9079492784791 2065.3077730697323 489.9079492784791L2065.3077730697323 489.9079492784791Q2057.9551179224472 489.9079492784791 2051.8862597056404 492.6214291542629Q2045.7882242858686 495.3640862330121 2041.2657578262288 500.2950335341676Q2036.7432913665893 505.225980835323 2034.2340519115633 512.286863952954Q2031.6956352535722 519.3185698676195 2031.6956352535722 527.7216043216595L2031.6956352535722 527.7216043216595L2031.6956352535722 531.0769826626824Q2031.6956352535722 548.9334308775177 2041.061517405471 558.9120342916904Q2050.3982223544044 568.8906377058629 2065.3077730697323 568.8906377058629ZM2151.8765342681254 581.4951893869231L2151.8765342681254 566.381398250837L2189.6901893113054 566.381398250837L2189.6901893113054 449.55587757730746L2153.1311539956378 449.55587757730746L2153.1311539956378 434.4420864412214L2206.0586001749043 434.4420864412214L2206.0586001749043 566.381398250837L2243.8722552180843 566.381398250837L2243.8722552180843 581.4951893869231L2151.8765342681254 581.4951893869231Z "
            fill="#E2V144" transform="matrix(0.38995089436735475,0,0,0.38995089436735475,0,101.34260897139133)"></path>
    </g>
</svg>